Chivo-Bold.ufo
<glyph name="percent" format="1">
  <advance width="739"/>
  <unicode hex="0025"/>
  <outline>
    <contour>
      <point x="693" y="226" type="line" smooth="yes"/>
      <point x="693" y="293"/>
      <point x="641" y="348"/>
      <point x="571" y="348" type="curve" smooth="yes"/>
      <point x="556" y="348" type="line" smooth="yes"/>
      <point x="486" y="348"/>
      <point x="434" y="293"/>
      <point x="434" y="226" type="curve" smooth="yes"/>
      <point x="434" y="121" type="line" smooth="yes"/>
      <point x="434" y="54"/>
      <point x="486" y="-1"/>
      <point x="556" y="-1" type="curve" smooth="yes"/>
      <point x="571" y="-1" type="line" smooth="yes"/>
      <point x="641" y="-1"/>
      <point x="693" y="54"/>
      <point x="693" y="121" type="curve" smooth="yes"/>
    </contour>
    <contour>
      <point x="618" y="686" type="line"/>
      <point x="538" y="686" type="line"/>
      <point x="119" y="0" type="line"/>
      <point x="202" y="0" type="line"/>
    </contour>
    <contour>
      <point x="303" y="563" type="line" smooth="yes"/>
      <point x="303" y="630"/>
      <point x="251" y="685"/>
      <point x="181" y="685" type="curve" smooth="yes"/>
      <point x="166" y="685" type="line" smooth="yes"/>
      <point x="96" y="685"/>
      <point x="44" y="630"/>
      <point x="44" y="563" type="curve" smooth="yes"/>
      <point x="44" y="458" type="line" smooth="yes"/>
      <point x="44" y="391"/>
      <point x="96" y="336"/>
      <point x="166" y="336" type="curve" smooth="yes"/>
      <point x="181" y="336" type="line" smooth="yes"/>
      <point x="251" y="336"/>
      <point x="303" y="391"/>
      <point x="303" y="458" type="curve" smooth="yes"/>
    </contour>
    <contour>
      <point x="612" y="111" type="line" smooth="yes"/>
      <point x="612" y="84"/>
      <point x="593" y="62"/>
      <point x="564" y="62" type="curve" smooth="yes"/>
      <point x="535" y="62"/>
      <point x="515" y="84"/>
      <point x="515" y="111" type="curve" smooth="yes"/>
      <point x="515" y="235" type="line" smooth="yes"/>
      <point x="515" y="263"/>
      <point x="535" y="285"/>
      <point x="564" y="285" type="curve" smooth="yes"/>
      <point x="593" y="285"/>
      <point x="612" y="263"/>
      <point x="612" y="235" type="curve" smooth="yes"/>
    </contour>
    <contour>
      <point x="222" y="449" type="line" smooth="yes"/>
      <point x="222" y="421"/>
      <point x="203" y="400"/>
      <point x="174" y="400" type="curve" smooth="yes"/>
      <point x="145" y="400"/>
      <point x="125" y="421"/>
      <point x="125" y="449" type="curve" smooth="yes"/>
      <point x="125" y="573" type="line" smooth="yes"/>
      <point x="125" y="600"/>
      <point x="145" y="622"/>
      <point x="174" y="622" type="curve" smooth="yes"/>
      <point x="203" y="622"/>
      <point x="222" y="600"/>
      <point x="222" y="573" type="curve" smooth="yes"/>
    </contour>
  </outline>
</glyph>
<glyph name="parenright" format="1">
  <advance width="326"/>
  <unicode hex="0029"/>
  <outline>
    <contour>
      <point x="285" y="419"/>
      <point x="228" y="570"/>
      <point x="126" y="686" type="curve"/>
      <point x="46" y="686" type="line"/>
      <point x="115" y="570"/>
      <point x="165" y="406"/>
      <point x="165" y="265" type="curve" smooth="yes"/>
      <point x="165" y="123"/>
      <point x="115" y="-43"/>
      <point x="46" y="-158" type="curve"/>
      <point x="126" y="-158" type="line"/>
      <point x="228" y="-42"/>
      <point x="285" y="109"/>
      <point x="285" y="264" type="curve" smooth="yes"/>
    </contour>
  </outline>
</glyph>
<glyph name="plus" format="1">
  <advance width="600"/>
  <unicode hex="002B"/>
  <outline>
    <contour>
      <point x="352" y="511" type="line"/>
      <point x="247" y="511" type="line"/>
      <point x="247" y="308" type="line"/>
      <point x="44" y="308" type="line"/>
      <point x="44" y="202" type="line"/>
      <point x="247" y="202" type="line"/>
      <point x="247" y="0" type="line"/>
      <point x="352" y="0" type="line"/>
      <point x="352" y="202" type="line"/>
      <point x="556" y="202" type="line"/>
      <point x="556" y="308" type="line"/>
      <point x="352" y="308" type="line"/>
    </contour>
  </outline>
</glyph>
<glyph name="one" format="1">
  <advance width="612"/>
  <unicode hex="0031"/>
  <outline>
    <contour>
      <point x="556" y="0" type="line"/>
      <point x="556" y="121" type="line"/>
      <point x="393" y="121" type="line"/>
      <point x="393" y="691" type="line"/>
      <point x="340" y="691" type="line"/>
      <point x="259" y="646"/>
      <point x="156" y="609"/>
      <point x="79" y="603" type="curve"/>
      <point x="79" y="514" type="line"/>
      <point x="246" y="514" type="line"/>
      <point x="246" y="121" type="line"/>
      <point x="80" y="121" type="line"/>
      <point x="80" y="0" type="line"/>
    </contour>
  </outline>
</glyph>
<glyph name="less" format="1">
  <advance width="599"/>
  <unicode hex="003C"/>
  <outline>
    <contour>
      <point x="45" y="192" type="line"/>
      <point x="215" y="127"/>
      <point x="384" y="61"/>
      <point x="554" y="-3" type="curve"/>
      <point x="554" y="110" type="line"/>
      <point x="165" y="254" type="line"/>
      <point x="554" y="398" type="line"/>
      <point x="554" y="512" type="line"/>
      <point x="45" y="315" type="line"/>
    </contour>
  </outline>
</glyph>
<glyph name="greater" format="1">
  <advance width="600"/>
  <unicode hex="003E"/>
  <outline>
    <contour>
      <point x="554" y="315" type="line"/>
      <point x="45" y="512" type="line"/>
      <point x="45" y="398" type="line"/>
      <point x="174" y="349"/>
      <point x="303" y="302"/>
      <point x="433" y="254" type="curve"/>
      <point x="303" y="206"/>
      <point x="174" y="158"/>
      <point x="45" y="110" type="curve"/>
      <point x="45" y="-3" type="line"/>
      <point x="215" y="61"/>
      <point x="384" y="127"/>
      <point x="554" y="192" type="curve"/>
    </contour>
  </outline>
</glyph>
<glyph name="A" format="1">
  <advance width="686"/>
  <unicode hex="0041"/>
  <outline>
    <contour>
      <point x="522" y="0" type="line"/>
      <point x="684" y="0" type="line"/>
      <point x="435" y="686" type="line"/>
      <point x="251" y="686" type="line"/>
      <point x="2" y="0" type="line"/>
      <point x="151" y="0" type="line"/>
      <point x="199" y="135" type="line"/>
      <point x="472" y="135" type="line"/>
    </contour>
    <contour>
      <point x="339" y="521" type="line"/>
      <point x="370" y="432"/>
      <point x="401" y="342"/>
      <point x="431" y="252" type="curve"/>
      <point x="241" y="252" type="line"/>
      <point x="272" y="342"/>
      <point x="303" y="432"/>
      <point x="334" y="521" type="curve"/>
    </contour>
    <contour>
      <point x="617" y="10" type="move" name="ogonek"/>
    </contour>
    <contour>
      <point x="343" y="686" type="move" name="top"/>
    </contour>
  </outline>
</glyph>
<glyph name="B" format="1">
  <advance width="645"/>
  <unicode hex="0042"/>
  <outline>
    <contour>
      <point x="72" y="0" type="line"/>
      <point x="418" y="0" type="line" smooth="yes"/>
      <point x="523" y="0"/>
      <point x="608" y="82"/>
      <point x="608" y="183" type="curve" smooth="yes"/>
      <point x="608" y="299"/>
      <point x="534" y="341"/>
      <point x="475" y="353" type="curve"/>
      <point x="475" y="358" type="line"/>
      <point x="534" y="374"/>
      <point x="592" y="417"/>
      <point x="592" y="518" type="curve" smooth="yes"/>
      <point x="592" y="611"/>
      <point x="511" y="686"/>
      <point x="412" y="686" type="curve" smooth="yes"/>
      <point x="72" y="686" type="line"/>
    </contour>
    <contour>
      <point x="218" y="408" type="line"/>
      <point x="218" y="568" type="line"/>
      <point x="368" y="568" type="line" smooth="yes"/>
      <point x="400" y="568"/>
      <point x="444" y="551"/>
      <point x="444" y="489" type="curve" smooth="yes"/>
      <point x="444" y="441"/>
      <point x="407" y="408"/>
      <point x="368" y="408" type="curve" smooth="yes"/>
    </contour>
    <contour>
      <point x="218" y="124" type="line"/>
      <point x="218" y="291" type="line"/>
      <point x="379" y="291" type="line" smooth="yes"/>
      <point x="423" y="291"/>
      <point x="458" y="256"/>
      <point x="458" y="212" type="curve" smooth="yes"/>
      <point x="458" y="203" type="line" smooth="yes"/>
      <point x="458" y="159"/>
      <point x="423" y="124"/>
      <point x="379" y="124" type="curve" smooth="yes"/>
    </contour>
  </outline>
</glyph>
<glyph name="C" format="1">
  <advance width="683"/>
  <unicode hex="0043"/>
  <outline>
    <contour>
      <point x="210" y="414" type="line" smooth="yes"/>
      <point x="210" y="519"/>
      <point x="274" y="573"/>
      <point x="354" y="573" type="curve" smooth="yes"/>
      <point x="440" y="573"/>
      <point x="488" y="519"/>
      <point x="488" y="414" type="curve"/>
      <point x="635" y="414" type="line"/>
      <point x="635" y="603"/>
      <point x="514" y="696"/>
      <point x="358" y="696" type="curve" smooth="yes"/>
      <point x="344" y="696" type="line" smooth="yes"/>
      <point x="180" y="696"/>
      <point x="48" y="586"/>
      <point x="48" y="392" type="curve" smooth="yes"/>
      <point x="48" y="294" type="line" smooth="yes"/>
      <point x="48" y="95"/>
      <point x="178" y="-10"/>
      <point x="348" y="-10" type="curve" smooth="yes"/>
      <point x="362" y="-10" type="line" smooth="yes"/>
      <point x="515" y="-10"/>
      <point x="635" y="88"/>
      <point x="635" y="270" type="curve"/>
      <point x="494" y="270" type="line"/>
      <point x="494" y="163"/>
      <point x="450" y="113"/>
      <point x="355" y="113" type="curve" smooth="yes"/>
      <point x="275" y="113"/>
      <point x="210" y="167"/>
      <point x="210" y="272" type="curve" smooth="yes"/>
    </contour>
    <contour>
      <point x="342" y="686" type="move" name="top"/>
    </contour>
    <contour>
      <point x="342" y="0" type="move" name="bottom"/>
    </contour>
  </outline>
</glyph>
<glyph name="G" format="1">
  <advance width="699"/>
  <unicode hex="0047"/>
  <outline>
    <contour>
      <point x="210" y="414" type="line" smooth="yes"/>
      <point x="210" y="519"/>
      <point x="272" y="573"/>
      <point x="353" y="573" type="curve" smooth="yes"/>
      <point x="425" y="573"/>
      <point x="487" y="534"/>
      <point x="487" y="442" type="curve"/>
      <point x="633" y="442" type="line"/>
      <point x="633" y="597"/>
      <point x="512" y="696"/>
      <point x="362" y="696" type="curve" smooth="yes"/>
      <point x="348" y="696" type="line" smooth="yes"/>
      <point x="173" y="696"/>
      <point x="48" y="579"/>
      <point x="48" y="392" type="curve" smooth="yes"/>
      <point x="48" y="294" type="line" smooth="yes"/>
      <point x="48" y="107"/>
      <point x="167" y="-10"/>
      <point x="332" y="-10" type="curve" smooth="yes"/>
      <point x="337" y="-10" type="line" smooth="yes"/>
      <point x="415" y="-10"/>
      <point x="487" y="23"/>
      <point x="530" y="77" type="curve"/>
      <point x="539" y="42"/>
      <point x="548" y="16"/>
      <point x="554" y="0" type="curve"/>
      <point x="639" y="0" type="line"/>
      <point x="639" y="0"/>
      <point x="633" y="56"/>
      <point x="633" y="136" type="curve" smooth="yes"/>
      <point x="633" y="373" type="line"/>
      <point x="333" y="373" type="line"/>
      <point x="333" y="261" type="line"/>
      <point x="488" y="261" type="line"/>
      <point x="488" y="159"/>
      <point x="436" y="113"/>
      <point x="356" y="113" type="curve" smooth="yes"/>
      <point x="276" y="113"/>
      <point x="210" y="167"/>
      <point x="210" y="272" type="curve" smooth="yes"/>
    </contour>
    <contour>
      <point x="350" y="686" type="move" name="top"/>
    </contour>
    <contour>
      <point x="350" y="0" type="move" name="bottom"/>
    </contour>
  </outline>
</glyph>
<glyph name="I" format="1">
  <advance width="461"/>
  <unicode hex="0049"/>
  <outline>
    <contour>
      <point x="72" y="563" type="line"/>
      <point x="153" y="563" type="line"/>
      <point x="153" y="123" type="line"/>
      <point x="72" y="123" type="line"/>
      <point x="72" y="0" type="line"/>
      <point x="388" y="0" type="line"/>
      <point x="388" y="123" type="line"/>
      <point x="308" y="123" type="line"/>
      <point x="308" y="563" type="line"/>
      <point x="388" y="563" type="line"/>
      <point x="388" y="686" type="line"/>
      <point x="72" y="686" type="line"/>
    </contour>
    <contour>
      <point x="365" y="10" type="move" name="ogonek"/>
    </contour>
    <contour>
      <point x="231" y="686" type="move" name="top"/>
    </contour>
  </outline>
</glyph>
<glyph name="P" format="1">
  <advance width="629"/>
  <unicode hex="0050"/>
  <outline>
    <contour>
      <point x="367" y="563" type="line" smooth="yes"/>
      <point x="420" y="563"/>
      <point x="455" y="522"/>
      <point x="455" y="477" type="curve" smooth="yes"/>
      <point x="455" y="471" type="line" smooth="yes"/>
      <point x="455" y="427"/>
      <point x="419" y="386"/>
      <point x="367" y="386" type="curve" smooth="yes"/>
      <point x="226" y="386" type="line"/>
      <point x="226" y="563" type="line"/>
    </contour>
    <contour>
      <point x="403" y="265" type="line" smooth="yes"/>
      <point x="520" y="265"/>
      <point x="610" y="359"/>
      <point x="610" y="475" type="curve" smooth="yes"/>
      <point x="610" y="481" type="line" smooth="yes"/>
      <point x="610" y="599"/>
      <point x="517" y="686"/>
      <point x="403" y="686" type="curve" smooth="yes"/>
      <point x="72" y="686" type="line"/>
      <point x="72" y="0" type="line"/>
      <point x="226" y="0" type="line"/>
      <point x="226" y="265" type="line"/>
    </contour>
  </outline>
</glyph>
<glyph name="bracketright" format="1">
  <advance width="338"/>
  <unicode hex="005D"/>
  <outline>
    <contour>
      <point x="274" y="-161" type="line"/>
      <point x="274" y="686" type="line"/>
      <point x="71" y="686" type="line"/>
      <point x="71" y="617" type="line"/>
      <point x="159" y="617" type="line"/>
      <point x="159" y="-92" type="line"/>
      <point x="71" y="-92" type="line"/>
      <point x="71" y="-161" type="line"/>
    </contour>
  </outline>
</glyph>
<glyph name="k" format="1">
  <advance width="562"/>
  <unicode hex="006B"/>
  <outline>
    <contour>
      <point x="564" y="0" type="line"/>
      <point x="368" y="271" type="line"/>
      <point x="556" y="511" type="line"/>
      <point x="391" y="511" type="line"/>
      <point x="212" y="273" type="line"/>
      <point x="212" y="720" type="line"/>
      <point x="66" y="720" type="line"/>
      <point x="66" y="0" type="line"/>
      <point x="212" y="0" type="line"/>
      <point x="212" y="112" type="line"/>
      <point x="269" y="167" type="line"/>
      <point x="390" y="0" type="line"/>
    </contour>
    <contour>
      <point x="281" y="0" type="move" name="bottom"/>
    </contour>
  </outline>
</glyph>
<glyph name="q" format="1">
  <advance width="595"/>
  <unicode hex="0071"/>
  <outline>
    <contour>
      <point x="382" y="-180" type="line"/>
      <point x="528" y="-180" type="line"/>
      <point x="528" y="511" type="line"/>
      <point x="475" y="511" type="line"/>
      <point x="458" y="486"/>
      <point x="441" y="459"/>
      <point x="424" y="433" type="curve"/>
      <point x="386" y="490"/>
      <point x="328" y="521"/>
      <point x="254" y="521" type="curve" smooth="yes"/>
      <point x="137" y="521"/>
      <point x="42" y="438"/>
      <point x="42" y="258" type="curve" smooth="yes"/>
      <point x="42" y="247" type="line" smooth="yes"/>
      <point x="42" y="76"/>
      <point x="130" y="-10"/>
      <point x="239" y="-10" type="curve" smooth="yes"/>
      <point x="309" y="-10"/>
      <point x="357" y="26"/>
      <point x="382" y="59" type="curve"/>
    </contour>
    <contour>
      <point x="190" y="300" type="line" smooth="yes"/>
      <point x="190" y="381"/>
      <point x="232" y="421"/>
      <point x="286" y="421" type="curve" smooth="yes"/>
      <point x="340" y="421"/>
      <point x="382" y="381"/>
      <point x="382" y="300" type="curve" smooth="yes"/>
      <point x="382" y="217" type="line" smooth="yes"/>
      <point x="382" y="136"/>
      <point x="340" y="96"/>
      <point x="286" y="96" type="curve" smooth="yes"/>
      <point x="232" y="96"/>
      <point x="190" y="136"/>
      <point x="190" y="217" type="curve" smooth="yes"/>
    </contour>
  </outline>
</glyph>
<glyph name="bar" format="1">
  <advance width="250"/>
  <unicode hex="007C"/>
  <outline>
    <contour>
      <point x="175" y="-199" type="line"/>
      <point x="175" y="720" type="line"/>
      <point x="75" y="720" type="line"/>
      <point x="75" y="-199" type="line"/>
    </contour>
  </outline>
</glyph>
<glyph name="braceright" format="1">
  <advance width="347"/>
  <unicode hex="007D"/>
  <outline>
    <contour>
      <point x="306" y="303" type="line"/>
      <point x="271" y="303"/>
      <point x="229" y="319"/>
      <point x="229" y="360" type="curve" smooth="yes"/>
      <point x="229" y="560" type="line" smooth="yes"/>
      <point x="229" y="678"/>
      <point x="120" y="686"/>
      <point x="39" y="686" type="curve"/>
      <point x="39" y="627" type="line"/>
      <point x="86" y="627"/>
      <point x="115" y="618"/>
      <point x="118" y="545" type="curve" smooth="yes"/>
      <point x="125" y="371" type="line" smooth="yes"/>
      <point x="128" y="306"/>
      <point x="154" y="268"/>
      <point x="220" y="268" type="curve"/>
      <point x="220" y="259" type="line"/>
      <point x="154" y="259"/>
      <point x="128" y="221"/>
      <point x="125" y="156" type="curve" smooth="yes"/>
      <point x="118" y="-18" type="line" smooth="yes"/>
      <point x="115" y="-91"/>
      <point x="86" y="-100"/>
      <point x="39" y="-100" type="curve"/>
      <point x="39" y="-159" type="line"/>
      <point x="120" y="-159"/>
      <point x="229" y="-152"/>
      <point x="229" y="-33" type="curve" smooth="yes"/>
      <point x="229" y="168" type="line" smooth="yes"/>
      <point x="229" y="206"/>
      <point x="271" y="224"/>
      <point x="306" y="224" type="curve"/>
    </contour>
  </outline>
</glyph>
<glyph name="degree" format="1">
  <advance width="400"/>
  <unicode hex="00B0"/>
  <outline>
    <contour>
      <point x="350" y="628"/>
      <point x="282" y="696"/>
      <point x="200" y="696" type="curve" smooth="yes"/>
      <point x="117" y="696"/>
      <point x="50" y="628"/>
      <point x="50" y="546" type="curve" smooth="yes"/>
      <point x="50" y="463"/>
      <point x="117" y="396"/>
      <point x="200" y="396" type="curve" smooth="yes"/>
      <point x="282" y="396"/>
      <point x="350" y="463"/>
      <point x="350" y="546" type="curve" smooth="yes"/>
    </contour>
    <contour>
      <point x="276" y="504"/>
      <point x="242" y="470"/>
      <point x="200" y="470" type="curve" smooth="yes"/>
      <point x="158" y="470"/>
      <point x="124" y="504"/>
      <point x="124" y="546" type="curve" smooth="yes"/>
      <point x="124" y="588"/>
      <point x="158" y="622"/>
      <point x="200" y="622" type="curve" smooth="yes"/>
      <point x="242" y="622"/>
      <point x="276" y="588"/>
      <point x="276" y="546" type="curve" smooth="yes"/>
    </contour>
  </outline>
</glyph>
<glyph name="uni00B2" format="1">
  <advance width="505"/>
  <unicode hex="00B2"/>
  <outline>
    <contour>
      <point x="42" y="419" type="line"/>
      <point x="315" y="419" type="line"/>
      <point x="315" y="489" type="line"/>
      <point x="144" y="489" type="line"/>
      <point x="150" y="497"/>
      <point x="169" y="511"/>
      <point x="175" y="515" type="curve"/>
      <point x="269" y="586"/>
      <point x="314" y="618"/>
      <point x="314" y="687" type="curve" smooth="yes"/>
      <point x="314" y="745"/>
      <point x="272" y="802"/>
      <point x="186" y="802" type="curve" smooth="yes"/>
      <point x="178" y="802" type="line" smooth="yes"/>
      <point x="71" y="802"/>
      <point x="42" y="719"/>
      <point x="42" y="676" type="curve" smooth="yes"/>
      <point x="42" y="673"/>
      <point x="42" y="670"/>
      <point x="43" y="666" type="curve"/>
      <point x="117" y="666" type="line"/>
      <point x="117" y="680" type="line" smooth="yes"/>
      <point x="117" y="694"/>
      <point x="127" y="735"/>
      <point x="175" y="735" type="curve" smooth="yes"/>
      <point x="208" y="735"/>
      <point x="233" y="715"/>
      <point x="233" y="685" type="curve" smooth="yes"/>
      <point x="233" y="662"/>
      <point x="224" y="639"/>
      <point x="197" y="618" type="curve" smooth="yes"/>
      <point x="161" y="590"/>
      <point x="121" y="563"/>
      <point x="89" y="531" type="curve"/>
      <point x="65" y="511"/>
      <point x="42" y="483"/>
      <point x="42" y="435" type="curve" smooth="yes"/>
    </contour>
  </outline>
</glyph>
<glyph name="acute" format="1">
  <advance width="333"/>
  <unicode hex="00B4"/>
  <outline>
    <contour>
      <point x="152" y="575" type="line"/>
      <point x="273" y="717" type="line"/>
      <point x="272" y="720" type="line"/>
      <point x="143" y="720" type="line"/>
      <point x="51" y="575" type="line"/>
    </contour>
    <contour>
      <point x="132" y="511" type="move" name="_top"/>
    </contour>
  </outline>
</glyph>
<glyph name="paragraph" format="1">
  <advance width="526"/>
  <unicode hex="00B6"/>
  <outline>
    <contour>
      <point x="225" y="-165" type="line"/>
      <point x="301" y="-165" type="line"/>
      <point x="301" y="616" type="line"/>
      <point x="375" y="616" type="line"/>
      <point x="375" y="-165" type="line"/>
      <point x="450" y="-165" type="line"/>
      <point x="450" y="616" type="line"/>
      <point x="516" y="616" type="line"/>
      <point x="516" y="686" type="line"/>
      <point x="243" y="686" type="line" smooth="yes"/>
      <point x="122" y="686"/>
      <point x="26" y="588"/>
      <point x="26" y="468" type="curve" smooth="yes"/>
      <point x="26" y="353"/>
      <point x="113" y="260"/>
      <point x="225" y="251" type="curve"/>
    </contour>
  </outline>
</glyph>
<glyph name="cedilla" format="1">
  <advance width="342"/>
  <unicode hex="00B8"/>
  <outline>
    <contour>
      <point x="58" y="-168" type="line"/>
      <point x="85" y="-187"/>
      <point x="129" y="-197"/>
      <point x="166" y="-197" type="curve" smooth="yes"/>
      <point x="210" y="-197"/>
      <point x="285" y="-182"/>
      <point x="285" y="-107" type="curve" smooth="yes"/>
      <point x="285" y="-34"/>
      <point x="226" y="-17"/>
      <point x="169" y="-17" type="curve" smooth="yes"/>
      <point x="146" y="-17" type="line"/>
      <point x="146" y="-68" type="line"/>
      <point x="166" y="-68" type="line" smooth="yes"/>
      <point x="194" y="-68"/>
      <point x="211" y="-81"/>
      <point x="211" y="-104" type="curve" smooth="yes"/>
      <point x="211" y="-131"/>
      <point x="189" y="-142"/>
      <point x="162" y="-142" type="curve" smooth="yes"/>
      <point x="115" y="-142"/>
      <point x="85" y="-119"/>
      <point x="79" y="-116" type="curve"/>
    </contour>
    <contour>
      <point x="172" y="0" type="move" name="_bottom"/>
    </contour>
  </outline>
</glyph>
<glyph name="Agrave" format="1">
  <advance width="686"/>
  <unicode hex="00C0"/>
  <outline>
    <contour>
      <point x="522" y="0" type="line"/>
      <point x="684" y="0" type="line"/>
      <point x="435" y="686" type="line"/>
      <point x="251" y="686" type="line"/>
      <point x="2" y="0" type="line"/>
      <point x="151" y="0" type="line"/>
      <point x="199" y="135" type="line"/>
      <point x="472" y="135" type="line"/>
    </contour>
    <contour>
      <point x="339" y="521" type="line"/>
      <point x="370" y="432"/>
      <point x="401" y="342"/>
      <point x="431" y="252" type="curve"/>
      <point x="241" y="252" type="line"/>
      <point x="272" y="342"/>
      <point x="303" y="432"/>
      <point x="334" y="521" type="curve"/>
    </contour>
    <contour>
      <point x="409" y="750" type="line"/>
      <point x="316" y="895" type="line"/>
      <point x="188" y="895" type="line"/>
      <point x="187" y="892" type="line"/>
      <point x="307" y="750" type="line"/>
    </contour>
  </outline>
</glyph>
<glyph name="Acircumflex" format="1">
  <advance width="686"/>
  <unicode hex="00C2"/>
  <outline>
    <contour>
      <point x="522" y="0" type="line"/>
      <point x="684" y="0" type="line"/>
      <point x="435" y="686" type="line"/>
      <point x="251" y="686" type="line"/>
      <point x="2" y="0" type="line"/>
      <point x="151" y="0" type="line"/>
      <point x="199" y="135" type="line"/>
      <point x="472" y="135" type="line"/>
    </contour>
    <contour>
      <point x="339" y="521" type="line"/>
      <point x="370" y="432"/>
      <point x="401" y="342"/>
      <point x="431" y="252" type="curve"/>
      <point x="241" y="252" type="line"/>
      <point x="272" y="342"/>
      <point x="303" y="432"/>
      <point x="334" y="521" type="curve"/>
    </contour>
    <contour>
      <point x="154" y="750" type="line"/>
      <point x="258" y="750" type="line"/>
      <point x="343" y="833" type="line"/>
      <point x="427" y="750" type="line"/>
      <point x="532" y="750" type="line"/>
      <point x="486" y="798"/>
      <point x="440" y="847"/>
      <point x="395" y="895" type="curve"/>
      <point x="292" y="895" type="line"/>
    </contour>
  </outline>
</glyph>
<glyph name="Ecircumflex" format="1">
  <advance width="598"/>
  <unicode hex="00CA"/>
  <outline>
    <contour>
      <point x="558" y="0" type="line"/>
      <point x="541" y="123" type="line"/>
      <point x="224" y="123" type="line"/>
      <point x="224" y="290" type="line"/>
      <point x="517" y="290" type="line"/>
      <point x="517" y="413" type="line"/>
      <point x="224" y="413" type="line"/>
      <point x="224" y="563" type="line"/>
      <point x="538" y="563" type="line"/>
      <point x="555" y="686" type="line"/>
      <point x="72" y="686" type="line"/>
      <point x="72" y="0" type="line"/>
    </contour>
    <contour>
      <point x="123" y="750" type="line"/>
      <point x="227" y="750" type="line"/>
      <point x="312" y="833" type="line"/>
      <point x="396" y="750" type="line"/>
      <point x="501" y="750" type="line"/>
      <point x="455" y="798"/>
      <point x="409" y="847"/>
      <point x="364" y="895" type="curve"/>
      <point x="261" y="895" type="line"/>
    </contour>
  </outline>
</glyph>
<glyph name="Edieresis" format="1">
  <advance width="598"/>
  <unicode hex="00CB"/>
  <outline>
    <contour>
      <point x="558" y="0" type="line"/>
      <point x="541" y="123" type="line"/>
      <point x="224" y="123" type="line"/>
      <point x="224" y="290" type="line"/>
      <point x="517" y="290" type="line"/>
      <point x="517" y="413" type="line"/>
      <point x="224" y="413" type="line"/>
      <point x="224" y="563" type="line"/>
      <point x="538" y="563" type="line"/>
      <point x="555" y="686" type="line"/>
      <point x="72" y="686" type="line"/>
      <point x="72" y="0" type="line"/>
    </contour>
    <contour>
      <point x="152" y="750" type="line"/>
      <point x="273" y="750" type="line"/>
      <point x="273" y="872" type="line"/>
      <point x="152" y="872" type="line"/>
    </contour>
    <contour>
      <point x="356" y="750" type="line"/>
      <point x="477" y="750" type="line"/>
      <point x="477" y="872" type="line"/>
      <point x="356" y="872" type="line"/>
    </contour>
  </outline>
</glyph>
<glyph name="Eth" format="1">
  <advance width="686"/>
  <unicode hex="00D0"/>
  <outline>
    <contour>
      <point x="-11" y="303" type="line"/>
      <point x="73" y="303" type="line"/>
      <point x="73" y="0" type="line"/>
      <point x="347" y="0" type="line" smooth="yes"/>
      <point x="508" y="0"/>
      <point x="638" y="117"/>
      <point x="638" y="304" type="curve" smooth="yes"/>
      <point x="638" y="382" type="line" smooth="yes"/>
      <point x="638" y="569"/>
      <point x="508" y="686"/>
      <point x="347" y="686" type="curve" smooth="yes"/>
      <point x="73" y="686" type="line"/>
      <point x="73" y="383" type="line"/>
      <point x="-11" y="383" type="line"/>
    </contour>
    <contour>
      <point x="227" y="124" type="line"/>
      <point x="227" y="303" type="line"/>
      <point x="339" y="303" type="line"/>
      <point x="339" y="383" type="line"/>
      <point x="227" y="383" type="line"/>
      <point x="227" y="563" type="line"/>
      <point x="337" y="563" type="line" smooth="yes"/>
      <point x="429" y="563"/>
      <point x="480" y="500"/>
      <point x="480" y="387" type="curve" smooth="yes"/>
      <point x="480" y="317" type="line" smooth="yes"/>
      <point x="480" y="193"/>
      <point x="437" y="124"/>
      <point x="337" y="124" type="curve" smooth="yes"/>
    </contour>
  </outline>
</glyph>
<glyph name="Ocircumflex" format="1">
  <advance width="708"/>
  <unicode hex="00D4"/>
  <outline>
    <contour>
      <point x="660" y="392" type="line" smooth="yes"/>
      <point x="660" y="587"/>
      <point x="521" y="696"/>
      <point x="354" y="696" type="curve" smooth="yes"/>
      <point x="187" y="696"/>
      <point x="48" y="587"/>
      <point x="48" y="392" type="curve" smooth="yes"/>
      <point x="48" y="294" type="line" smooth="yes"/>
      <point x="48" y="99"/>
      <point x="187" y="-10"/>
      <point x="354" y="-10" type="curve" smooth="yes"/>
      <point x="521" y="-10"/>
      <point x="660" y="99"/>
      <point x="660" y="294" type="curve" smooth="yes"/>
    </contour>
    <contour>
      <point x="498" y="272" type="line" smooth="yes"/>
      <point x="498" y="167"/>
      <point x="436" y="113"/>
      <point x="354" y="113" type="curve" smooth="yes"/>
      <point x="272" y="113"/>
      <point x="210" y="167"/>
      <point x="210" y="272" type="curve" smooth="yes"/>
      <point x="210" y="414" type="line" smooth="yes"/>
      <point x="210" y="519"/>
      <point x="272" y="573"/>
      <point x="354" y="573" type="curve" smooth="yes"/>
      <point x="436" y="573"/>
      <point x="498" y="519"/>
      <point x="498" y="414" type="curve" smooth="yes"/>
    </contour>
    <contour>
      <point x="162" y="750" type="line"/>
      <point x="266" y="750" type="line"/>
      <point x="351" y="833" type="line"/>
      <point x="435" y="750" type="line"/>
      <point x="540" y="750" type="line"/>
      <point x="494" y="798"/>
      <point x="448" y="847"/>
      <point x="403" y="895" type="curve"/>
      <point x="300" y="895" type="line"/>
    </contour>
  </outline>
</glyph>
<glyph name="Otilde" format="1">
  <advance width="708"/>
  <unicode hex="00D5"/>
  <outline>
    <contour>
      <point x="660" y="392" type="line" smooth="yes"/>
      <point x="660" y="587"/>
      <point x="521" y="696"/>
      <point x="354" y="696" type="curve" smooth="yes"/>
      <point x="187" y="696"/>
      <point x="48" y="587"/>
      <point x="48" y="392" type="curve" smooth="yes"/>
      <point x="48" y="294" type="line" smooth="yes"/>
      <point x="48" y="99"/>
      <point x="187" y="-10"/>
      <point x="354" y="-10" type="curve" smooth="yes"/>
      <point x="521" y="-10"/>
      <point x="660" y="99"/>
      <point x="660" y="294" type="curve" smooth="yes"/>
    </contour>
    <contour>
      <point x="498" y="272" type="line" smooth="yes"/>
      <point x="498" y="167"/>
      <point x="436" y="113"/>
      <point x="354" y="113" type="curve" smooth="yes"/>
      <point x="272" y="113"/>
      <point x="210" y="167"/>
      <point x="210" y="272" type="curve" smooth="yes"/>
      <point x="210" y="414" type="line" smooth="yes"/>
      <point x="210" y="519"/>
      <point x="272" y="573"/>
      <point x="354" y="573" type="curve" smooth="yes"/>
      <point x="436" y="573"/>
      <point x="498" y="519"/>
      <point x="498" y="414" type="curve" smooth="yes"/>
    </contour>
    <contour>
      <point x="495" y="873" type="line"/>
      <point x="488" y="850"/>
      <point x="470" y="835"/>
      <point x="442" y="835" type="curve" smooth="yes"/>
      <point x="388" y="835"/>
      <point x="336" y="873"/>
      <point x="272" y="873" type="curve" smooth="yes"/>
      <point x="194" y="873"/>
      <point x="145" y="808"/>
      <point x="145" y="749" type="curve"/>
      <point x="211" y="749" type="line"/>
      <point x="218" y="772"/>
      <point x="235" y="786"/>
      <point x="263" y="786" type="curve" smooth="yes"/>
      <point x="317" y="786"/>
      <point x="370" y="749"/>
      <point x="434" y="749" type="curve" smooth="yes"/>
      <point x="512" y="749"/>
      <point x="560" y="813"/>
      <point x="560" y="873" type="curve"/>
    </contour>
  </outline>
</glyph>
<glyph name="multiply" format="1">
  <advance width="600"/>
  <unicode hex="00D7"/>
  <outline>
    <contour>
      <point x="155" y="474" type="line"/>
      <point x="131" y="449"/>
      <point x="107" y="424"/>
      <point x="82" y="399" type="curve"/>
      <point x="226" y="255" type="line"/>
      <point x="82" y="112" type="line"/>
      <point x="107" y="87"/>
      <point x="131" y="62"/>
      <point x="155" y="37" type="curve"/>
      <point x="300" y="180" type="line"/>
      <point x="347" y="132"/>
      <point x="396" y="85"/>
      <point x="444" y="37" type="curve"/>
      <point x="468" y="62"/>
      <point x="492" y="87"/>
      <point x="517" y="112" type="curve"/>
      <point x="373" y="255" type="line"/>
      <point x="517" y="399" type="line"/>
      <point x="493" y="424"/>
      <point x="469" y="449"/>
      <point x="444" y="474" type="curve"/>
      <point x="300" y="330" type="line"/>
    </contour>
  </outline>
</glyph>
<glyph name="Uacute" format="1">
  <advance width="673"/>
  <unicode hex="00DA"/>
  <outline>
    <contour>
      <point x="609" y="686" type="line"/>
      <point x="455" y="686" type="line"/>
      <point x="455" y="221" type="line" smooth="yes"/>
      <point x="455" y="157"/>
      <point x="408" y="112"/>
      <point x="337" y="112" type="curve" smooth="yes"/>
      <point x="267" y="112"/>
      <point x="218" y="158"/>
      <point x="218" y="221" type="curve" smooth="yes"/>
      <point x="218" y="686" type="line"/>
      <point x="64" y="686" type="line"/>
      <point x="64" y="218" type="line" smooth="yes"/>
      <point x="64" y="80"/>
      <point x="166" y="-10"/>
      <point x="322" y="-10" type="curve" smooth="yes"/>
      <point x="350" y="-10" type="line" smooth="yes"/>
      <point x="506" y="-10"/>
      <point x="609" y="80"/>
      <point x="609" y="218" type="curve" smooth="yes"/>
    </contour>
    <contour>
      <point x="386" y="750" type="line"/>
      <point x="507" y="892" type="line"/>
      <point x="506" y="895" type="line"/>
      <point x="377" y="895" type="line"/>
      <point x="285" y="750" type="line"/>
    </contour>
  </outline>
</glyph>
<glyph name="eth" format="1">
  <advance width="614"/>
  <unicode hex="00F0"/>
  <outline>
    <contour>
      <point x="561" y="270" type="line" smooth="yes"/>
      <point x="561" y="416"/>
      <point x="462" y="552"/>
      <point x="344" y="646" type="curve"/>
      <point x="369" y="657"/>
      <point x="393" y="669"/>
      <point x="417" y="680" type="curve"/>
      <point x="374" y="722" type="line"/>
      <point x="291" y="684" type="line"/>
      <point x="260" y="703"/>
      <point x="228" y="720"/>
      <point x="197" y="734" type="curve"/>
      <point x="183" y="727"/>
      <point x="110" y="698"/>
      <point x="110" y="692" type="curve"/>
      <point x="136" y="680"/>
      <point x="168" y="660"/>
      <point x="195" y="637" type="curve"/>
      <point x="111" y="597" type="line"/>
      <point x="158" y="555" type="line"/>
      <point x="237" y="592" type="line"/>
      <point x="262" y="564"/>
      <point x="283" y="536"/>
      <point x="297" y="514" type="curve"/>
      <point x="158" y="514"/>
      <point x="45" y="429"/>
      <point x="45" y="270" type="curve" smooth="yes"/>
      <point x="45" y="241" type="line" smooth="yes"/>
      <point x="45" y="82"/>
      <point x="154" y="-10"/>
      <point x="295" y="-10" type="curve" smooth="yes"/>
      <point x="311" y="-10" type="line" smooth="yes"/>
      <point x="452" y="-10"/>
      <point x="561" y="81"/>
      <point x="561" y="241" type="curve" smooth="yes"/>
    </contour>
    <contour>
      <point x="413" y="215" type="line" smooth="yes"/>
      <point x="413" y="131"/>
      <point x="365" y="90"/>
      <point x="303" y="90" type="curve" smooth="yes"/>
      <point x="241" y="90"/>
      <point x="193" y="131"/>
      <point x="193" y="215" type="curve" smooth="yes"/>
      <point x="193" y="296" type="line" smooth="yes"/>
      <point x="193" y="380"/>
      <point x="241" y="421"/>
      <point x="303" y="421" type="curve" smooth="yes"/>
      <point x="365" y="421"/>
      <point x="413" y="380"/>
      <point x="413" y="296" type="curve" smooth="yes"/>
    </contour>
  </outline>
</glyph>
<glyph name="odieresis" format="1">
  <advance width="606"/>
  <unicode hex="00F6"/>
  <outline>
    <contour>
      <point x="561" y="270" type="line" smooth="yes"/>
      <point x="561" y="429"/>
      <point x="452" y="521"/>
      <point x="311" y="521" type="curve" smooth="yes"/>
      <point x="295" y="521" type="line" smooth="yes"/>
      <point x="154" y="521"/>
      <point x="45" y="429"/>
      <point x="45" y="270" type="curve" smooth="yes"/>
      <point x="45" y="241" type="line" smooth="yes"/>
      <point x="45" y="82"/>
      <point x="154" y="-10"/>
      <point x="295" y="-10" type="curve" smooth="yes"/>
      <point x="311" y="-10" type="line" smooth="yes"/>
      <point x="452" y="-10"/>
      <point x="561" y="82"/>
      <point x="561" y="241" type="curve" smooth="yes"/>
    </contour>
    <contour>
      <point x="413" y="215" type="line" smooth="yes"/>
      <point x="413" y="131"/>
      <point x="365" y="90"/>
      <point x="303" y="90" type="curve" smooth="yes"/>
      <point x="241" y="90"/>
      <point x="193" y="131"/>
      <point x="193" y="215" type="curve" smooth="yes"/>
      <point x="193" y="296" type="line" smooth="yes"/>
      <point x="193" y="380"/>
      <point x="241" y="421"/>
      <point x="303" y="421" type="curve" smooth="yes"/>
      <point x="365" y="421"/>
      <point x="413" y="380"/>
      <point x="413" y="296" type="curve" smooth="yes"/>
    </contour>
    <contour>
      <point x="139" y="598" type="line"/>
      <point x="260" y="598" type="line"/>
      <point x="260" y="720" type="line"/>
      <point x="139" y="720" type="line"/>
    </contour>
    <contour>
      <point x="343" y="598" type="line"/>
      <point x="464" y="598" type="line"/>
      <point x="464" y="720" type="line"/>
      <point x="343" y="720" type="line"/>
    </contour>
  </outline>
</glyph>
<glyph name="Lslash" format="1">
  <advance width="546"/>
  <unicode hex="0141"/>
  <outline>
    <contour>
      <point x="8" y="274" type="line"/>
      <point x="30" y="284"/>
      <point x="51" y="295"/>
      <point x="72" y="306" type="curve"/>
      <point x="72" y="0" type="line"/>
      <point x="526" y="0" type="line"/>
      <point x="519" y="43"/>
      <point x="512" y="85"/>
      <point x="504" y="128" type="curve"/>
      <point x="227" y="128" type="line"/>
      <point x="227" y="384" type="line"/>
      <point x="342" y="442" type="line"/>
      <point x="342" y="530" type="line"/>
      <point x="227" y="472" type="line"/>
      <point x="227" y="686" type="line"/>
      <point x="72" y="686" type="line"/>
      <point x="72" y="394" type="line"/>
      <point x="51" y="383"/>
      <point x="30" y="372"/>
      <point x="8" y="362" type="curve"/>
    </contour>
  </outline>
</glyph>
<glyph name="lslash" format="1">
  <advance width="279"/>
  <unicode hex="0142"/>
  <outline>
    <contour>
      <point x="-4" y="268" type="line"/>
      <point x="19" y="280"/>
      <point x="42" y="291"/>
      <point x="66" y="303" type="curve"/>
      <point x="66" y="0" type="line"/>
      <point x="212" y="0" type="line"/>
      <point x="212" y="377" type="line"/>
      <point x="283" y="412" type="line"/>
      <point x="283" y="500" type="line"/>
      <point x="212" y="464" type="line"/>
      <point x="212" y="720" type="line"/>
      <point x="66" y="720" type="line"/>
      <point x="66" y="390" type="line"/>
      <point x="42" y="378"/>
      <point x="19" y="367"/>
      <point x="-4" y="355" type="curve"/>
    </contour>
  </outline>
</glyph>
<glyph name="oe" format="1">
  <advance width="946"/>
  <unicode hex="0153"/>
  <outline>
    <contour>
      <point x="293" y="521" type="line" smooth="yes"/>
      <point x="152" y="521"/>
      <point x="43" y="429"/>
      <point x="43" y="270" type="curve" smooth="yes"/>
      <point x="43" y="241" type="line" smooth="yes"/>
      <point x="43" y="82"/>
      <point x="152" y="-10"/>
      <point x="293" y="-10" type="curve" smooth="yes"/>
      <point x="309" y="-10" type="line" smooth="yes"/>
      <point x="377" y="-10"/>
      <point x="437" y="11"/>
      <point x="482" y="51" type="curve"/>
      <point x="526" y="11"/>
      <point x="586" y="-10"/>
      <point x="655" y="-10" type="curve" smooth="yes"/>
      <point x="671" y="-10" type="line" smooth="yes"/>
      <point x="789" y="-10"/>
      <point x="902" y="50"/>
      <point x="902" y="191" type="curve"/>
      <point x="762" y="191" type="line"/>
      <point x="762" y="123"/>
      <point x="723" y="90"/>
      <point x="663" y="90" type="curve" smooth="yes"/>
      <point x="593" y="90"/>
      <point x="553" y="142"/>
      <point x="553" y="207" type="curve" smooth="yes"/>
      <point x="553" y="231" type="line"/>
      <point x="903" y="231" type="line"/>
      <point x="903" y="307" type="line" smooth="yes"/>
      <point x="903" y="444"/>
      <point x="793" y="521"/>
      <point x="671" y="521" type="curve" smooth="yes"/>
      <point x="655" y="521" type="line" smooth="yes"/>
      <point x="587" y="521"/>
      <point x="526" y="499"/>
      <point x="482" y="459" type="curve"/>
      <point x="437" y="499"/>
      <point x="377" y="521"/>
      <point x="309" y="521" type="curve" smooth="yes"/>
    </contour>
    <contour>
      <point x="411" y="215" type="line" smooth="yes"/>
      <point x="411" y="131"/>
      <point x="363" y="90"/>
      <point x="301" y="90" type="curve" smooth="yes"/>
      <point x="239" y="90"/>
      <point x="191" y="131"/>
      <point x="191" y="215" type="curve" smooth="yes"/>
      <point x="191" y="296" type="line" smooth="yes"/>
      <point x="191" y="380"/>
      <point x="239" y="421"/>
      <point x="301" y="421" type="curve" smooth="yes"/>
      <point x="363" y="421"/>
      <point x="411" y="380"/>
      <point x="411" y="296" type="curve" smooth="yes"/>
    </contour>
    <contour>
      <point x="729" y="421"/>
      <point x="755" y="374"/>
      <point x="755" y="311" type="curve"/>
      <point x="553" y="311" type="line"/>
      <point x="558" y="373"/>
      <point x="596" y="421"/>
      <point x="656" y="421" type="curve" smooth="yes"/>
    </contour>
    <contour>
      <point x="473" y="511" type="move" name="top"/>
    </contour>
  </outline>
</glyph>
<glyph name="Scaron" format="1">
  <advance width="635"/>
  <unicode hex="0160"/>
  <outline>
    <contour>
      <point x="580" y="483" type="line"/>
      <point x="580" y="495" type="line" smooth="yes"/>
      <point x="580" y="635"/>
      <point x="462" y="696"/>
      <point x="319" y="696" type="curve" smooth="yes"/>
      <point x="174" y="696"/>
      <point x="51" y="630"/>
      <point x="51" y="493" type="curve" smooth="yes"/>
      <point x="51" y="231"/>
      <point x="438" y="323"/>
      <point x="438" y="191" type="curve" smooth="yes"/>
      <point x="438" y="152"/>
      <point x="408" y="113"/>
      <point x="307" y="113" type="curve" smooth="yes"/>
      <point x="225" y="113"/>
      <point x="181" y="151"/>
      <point x="181" y="208" type="curve" smooth="yes"/>
      <point x="181" y="213"/>
      <point x="182" y="222"/>
      <point x="182" y="224" type="curve"/>
      <point x="36" y="224" type="line"/>
      <point x="36" y="219"/>
      <point x="35" y="210"/>
      <point x="35" y="202" type="curve" smooth="yes"/>
      <point x="35" y="51"/>
      <point x="165" y="-10"/>
      <point x="312" y="-10" type="curve" smooth="yes"/>
      <point x="478" y="-10"/>
      <point x="595" y="53"/>
      <point x="595" y="216" type="curve" smooth="yes"/>
      <point x="595" y="466"/>
      <point x="206" y="379"/>
      <point x="206" y="509" type="curve" smooth="yes"/>
      <point x="206" y="547"/>
      <point x="248" y="573"/>
      <point x="322" y="573" type="curve" smooth="yes"/>
      <point x="393" y="573"/>
      <point x="435" y="542"/>
      <point x="435" y="492" type="curve" smooth="yes"/>
      <point x="435" y="483" type="line"/>
    </contour>
    <contour>
      <point x="267" y="750" type="line"/>
      <point x="370" y="750" type="line"/>
      <point x="415" y="798"/>
      <point x="461" y="847"/>
      <point x="507" y="895" type="curve"/>
      <point x="403" y="895" type="line"/>
      <point x="319" y="812" type="line"/>
      <point x="234" y="895" type="line"/>
      <point x="129" y="895" type="line"/>
    </contour>
  </outline>
</glyph>
<glyph name="zcaron" format="1">
  <advance width="486"/>
  <unicode hex="017E"/>
  <outline>
    <contour>
      <point x="455" y="0" type="line"/>
      <point x="455" y="100" type="line"/>
      <point x="228" y="100" type="line"/>
      <point x="447" y="462" type="line"/>
      <point x="447" y="511" type="line"/>
      <point x="49" y="511" type="line"/>
      <point x="49" y="411" type="line"/>
      <point x="254" y="411" type="line"/>
      <point x="36" y="50" type="line"/>
      <point x="36" y="0" type="line"/>
    </contour>
    <contour>
      <point x="196" y="575" type="line"/>
      <point x="299" y="575" type="line"/>
      <point x="344" y="623"/>
      <point x="390" y="672"/>
      <point x="436" y="720" type="curve"/>
      <point x="332" y="720" type="line"/>
      <point x="248" y="637" type="line"/>
      <point x="163" y="720" type="line"/>
      <point x="58" y="720" type="line"/>
    </contour>
  </outline>
</glyph>
<glyph name="circumflex" format="1">
  <advance width="538"/>
  <unicode hex="02C6"/>
  <outline>
    <contour>
      <point x="78" y="575" type="line"/>
      <point x="182" y="575" type="line"/>
      <point x="267" y="658" type="line"/>
      <point x="351" y="575" type="line"/>
      <point x="456" y="575" type="line"/>
      <point x="410" y="623"/>
      <point x="364" y="672"/>
      <point x="319" y="720" type="curve"/>
      <point x="216" y="720" type="line"/>
    </contour>
    <contour>
      <point x="267" y="511" type="move" name="_top"/>
    </contour>
  </outline>
</glyph>
<glyph name="ring" format="1">
  <advance width="340"/>
  <unicode hex="02DA"/>
  <outline>
    <contour>
      <point x="69" y="589"/>
      <point x="114" y="544"/>
      <point x="170" y="544" type="curve" smooth="yes"/>
      <point x="226" y="544"/>
      <point x="271" y="589"/>
      <point x="271" y="645" type="curve" smooth="yes"/>
      <point x="271" y="701"/>
      <point x="226" y="746"/>
      <point x="170" y="746" type="curve" smooth="yes"/>
      <point x="114" y="746"/>
      <point x="69" y="701"/>
      <point x="69" y="645" type="curve" smooth="yes"/>
    </contour>
    <contour>
      <point x="126" y="669"/>
      <point x="146" y="689"/>
      <point x="170" y="689" type="curve" smooth="yes"/>
      <point x="194" y="689"/>
      <point x="214" y="669"/>
      <point x="214" y="645" type="curve" smooth="yes"/>
      <point x="214" y="621"/>
      <point x="194" y="601"/>
      <point x="170" y="601" type="curve" smooth="yes"/>
      <point x="146" y="601"/>
      <point x="126" y="621"/>
      <point x="126" y="645" type="curve" smooth="yes"/>
    </contour>
    <contour>
      <point x="170" y="511" type="move" name="_top"/>
    </contour>
  </outline>
</glyph>
<glyph name="ogonek" format="1">
  <advance width="340"/>
  <unicode hex="02DB"/>
  <outline>
    <contour>
      <point x="249" y="-79" type="line"/>
      <point x="228" y="-87"/>
      <point x="206" y="-93"/>
      <point x="182" y="-93" type="curve" smooth="yes"/>
      <point x="161" y="-93"/>
      <point x="138" y="-85"/>
      <point x="138" y="-57" type="curve" smooth="yes"/>
      <point x="138" y="-32"/>
      <point x="165" y="-11"/>
      <point x="185" y="0" type="curve"/>
      <point x="123" y="0" type="line"/>
      <point x="99" y="-16"/>
      <point x="69" y="-39"/>
      <point x="69" y="-71" type="curve" smooth="yes"/>
      <point x="69" y="-126"/>
      <point x="120" y="-143"/>
      <point x="166" y="-143" type="curve" smooth="yes"/>
      <point x="199" y="-143"/>
      <point x="233" y="-135"/>
      <point x="262" y="-119" type="curve"/>
    </contour>
    <contour>
      <point x="185" y="10" type="move" name="_ogonek"/>
    </contour>
  </outline>
</glyph>
<glyph name="tilde" format="1">
  <advance width="348"/>
  <unicode hex="02DC"/>
  <outline>
    <contour>
      <point x="333" y="718" type="line"/>
      <point x="326" y="695"/>
      <point x="308" y="680"/>
      <point x="280" y="680" type="curve" smooth="yes"/>
      <point x="226" y="680"/>
      <point x="174" y="718"/>
      <point x="110" y="718" type="curve" smooth="yes"/>
      <point x="32" y="718"/>
      <point x="-17" y="653"/>
      <point x="-17" y="594" type="curve"/>
      <point x="49" y="594" type="line"/>
      <point x="56" y="617"/>
      <point x="73" y="631"/>
      <point x="101" y="631" type="curve" smooth="yes"/>
      <point x="155" y="631"/>
      <point x="208" y="594"/>
      <point x="272" y="594" type="curve" smooth="yes"/>
      <point x="350" y="594"/>
      <point x="398" y="658"/>
      <point x="398" y="718" type="curve"/>
    </contour>
    <contour>
      <point x="191" y="511" type="move" name="_top"/>
    </contour>
  </outline>
</glyph>
<glyph name="pi" format="1">
  <advance width="679"/>
  <unicode hex="03C0"/>
  <outline>
    <contour>
      <point x="648" y="411" type="line"/>
      <point x="660" y="511" type="line"/>
      <point x="203" y="511" type="line" smooth="yes"/>
      <point x="102" y="511"/>
      <point x="44" y="499"/>
      <point x="17" y="478" type="curve"/>
      <point x="32" y="400" type="line"/>
      <point x="58" y="408"/>
      <point x="93" y="411"/>
      <point x="148" y="411" type="curve"/>
      <point x="146" y="295"/>
      <point x="115" y="103"/>
      <point x="79" y="0" type="curve"/>
      <point x="218" y="0" type="line"/>
      <point x="254" y="83"/>
      <point x="283" y="290"/>
      <point x="288" y="411" type="curve"/>
      <point x="424" y="411" type="line"/>
      <point x="424" y="148" type="line" smooth="yes"/>
      <point x="424" y="73"/>
      <point x="430" y="17"/>
      <point x="442" y="0" type="curve"/>
      <point x="580" y="0" type="line"/>
      <point x="572" y="31"/>
      <point x="566" y="81"/>
      <point x="566" y="158" type="curve" smooth="yes"/>
      <point x="566" y="411" type="line"/>
    </contour>
  </outline>
</glyph>
<glyph name="endash" format="1">
  <advance width="500"/>
  <unicode hex="2013"/>
  <outline>
    <contour>
      <point x="500" y="209" type="line"/>
      <point x="500" y="336" type="line"/>
      <point x="0" y="336" type="line"/>
      <point x="0" y="209" type="line"/>
    </contour>
  </outline>
</glyph>
<glyph name="ellipsis" format="1">
  <advance width="874"/>
  <unicode hex="2026"/>
  <outline>
    <contour>
      <point x="73" y="0" type="line"/>
      <point x="220" y="0" type="line"/>
      <point x="220" y="147" type="line"/>
      <point x="73" y="147" type="line"/>
    </contour>
    <contour>
      <point x="364" y="0" type="line"/>
      <point x="510" y="0" type="line"/>
      <point x="510" y="147" type="line"/>
      <point x="364" y="147" type="line"/>
    </contour>
    <contour>
      <point x="654" y="0" type="line"/>
      <point x="800" y="0" type="line"/>
      <point x="800" y="147" type="line"/>
      <point x="654" y="147" type="line"/>
    </contour>
  </outline>
</glyph>
<glyph name="guilsinglright" format="1">
  <advance width="277"/>
  <unicode hex="203A"/>
  <outline>
    <contour>
      <point x="109" y="163" type="line"/>
      <point x="230" y="337" type="line"/>
      <point x="109" y="511" type="line"/>
      <point x="47" y="511" type="line"/>
      <point x="136" y="337" type="line"/>
      <point x="47" y="163" type="line"/>
    </contour>
  </outline>
</glyph>
<glyph name="product" format="1">
  <advance width="818"/>
  <unicode hex="220F"/>
  <outline>
    <contour>
      <point x="797" y="581" type="line"/>
      <point x="797" y="719" type="line"/>
      <point x="22" y="719" type="line"/>
      <point x="22" y="581" type="line"/>
      <point x="138" y="581" type="line"/>
      <point x="138" y="-100" type="line"/>
      <point x="296" y="-100" type="line"/>
      <point x="296" y="581" type="line"/>
      <point x="521" y="581" type="line"/>
      <point x="521" y="-100" type="line"/>
      <point x="679" y="-100" type="line"/>
      <point x="679" y="581" type="line"/>
    </contour>
  </outline>
</glyph>
<glyph name="summation" format="1">
  <advance width="643"/>
  <unicode hex="2211"/>
  <outline>
    <contour>
      <point x="625" y="-100" type="line"/>
      <point x="625" y="42" type="line"/>
      <point x="237" y="42" type="line"/>
      <point x="237" y="46" type="line"/>
      <point x="471" y="327" type="line"/>
      <point x="260" y="580" type="line"/>
      <point x="260" y="584" type="line"/>
      <point x="603" y="584" type="line"/>
      <point x="603" y="719" type="line"/>
      <point x="35" y="719" type="line"/>
      <point x="35" y="617" type="line"/>
      <point x="289" y="309" type="line"/>
      <point x="23" y="-9" type="line"/>
      <point x="23" y="-100" type="line"/>
    </contour>
  </outline>
</glyph>
<glyph name="radical" format="1">
  <advance width="683"/>
  <unicode hex="221A"/>
  <outline>
    <contour>
      <point x="593" y="821" type="line"/>
      <point x="521" y="548"/>
      <point x="447" y="275"/>
      <point x="379" y="1" type="curve"/>
      <point x="334" y="136"/>
      <point x="279" y="274"/>
      <point x="228" y="409" type="curve"/>
      <point x="28" y="325" type="line"/>
      <point x="37" y="300"/>
      <point x="46" y="275"/>
      <point x="55" y="249" type="curve"/>
      <point x="136" y="282" type="line"/>
      <point x="195" y="138"/>
      <point x="255" y="-6"/>
      <point x="315" y="-150" type="curve"/>
      <point x="440" y="-150" type="line"/>
      <point x="529" y="173"/>
      <point x="618" y="497"/>
      <point x="707" y="821" type="curve"/>
    </contour>
  </outline>
</glyph>
<glyph name="infinity" format="1">
  <advance width="812"/>
  <unicode hex="221E"/>
  <outline>
    <contour>
      <point x="764" y="391"/>
      <point x="689" y="462"/>
      <point x="595" y="462" type="curve" smooth="yes"/>
      <point x="503" y="462"/>
      <point x="455" y="396"/>
      <point x="411" y="350" type="curve"/>
      <point x="359" y="418"/>
      <point x="302" y="462"/>
      <point x="223" y="462" type="curve" smooth="yes"/>
      <point x="123" y="462"/>
      <point x="47" y="388"/>
      <point x="47" y="280" type="curve" smooth="yes"/>
      <point x="47" y="173"/>
      <point x="126" y="102"/>
      <point x="214" y="102" type="curve" smooth="yes"/>
      <point x="297" y="102"/>
      <point x="351" y="152"/>
      <point x="404" y="216" type="curve"/>
      <point x="474" y="123"/>
      <point x="537" y="102"/>
      <point x="592" y="102" type="curve" smooth="yes"/>
      <point x="680" y="102"/>
      <point x="764" y="170"/>
      <point x="764" y="287" type="curve" smooth="yes"/>
    </contour>
    <contour>
      <point x="169" y="183"/>
      <point x="129" y="228"/>
      <point x="129" y="280" type="curve" smooth="yes"/>
      <point x="129" y="342"/>
      <point x="168" y="382"/>
      <point x="220" y="382" type="curve" smooth="yes"/>
      <point x="277" y="382"/>
      <point x="315" y="345"/>
      <point x="349" y="294" type="curve" smooth="yes"/>
      <point x="361" y="276" type="line"/>
      <point x="328" y="234"/>
      <point x="280" y="183"/>
      <point x="223" y="183" type="curve" smooth="yes"/>
    </contour>
    <contour>
      <point x="644" y="382"/>
      <point x="681" y="340"/>
      <point x="681" y="280" type="curve" smooth="yes"/>
      <point x="681" y="236"/>
      <point x="650" y="183"/>
      <point x="594" y="183" type="curve" smooth="yes"/>
      <point x="547" y="183"/>
      <point x="513" y="205"/>
      <point x="452" y="283" type="curve"/>
      <point x="482" y="321"/>
      <point x="533" y="382"/>
      <point x="589" y="382" type="curve" smooth="yes"/>
    </contour>
  </outline>
</glyph>
<glyph name="approxequal" format="1">
  <advance width="714"/>
  <unicode hex="2248"/>
  <outline>
    <contour>
      <point x="639" y="463" type="line"/>
      <point x="639" y="463"/>
      <point x="571" y="385"/>
      <point x="476" y="385" type="curve" smooth="yes"/>
      <point x="388" y="385"/>
      <point x="323" y="451"/>
      <point x="238" y="451" type="curve" smooth="yes"/>
      <point x="143" y="451"/>
      <point x="75" y="373"/>
      <point x="75" y="373" type="curve"/>
      <point x="75" y="268" type="line"/>
      <point x="75" y="268"/>
      <point x="143" y="346"/>
      <point x="238" y="346" type="curve" smooth="yes"/>
      <point x="326" y="346"/>
      <point x="391" y="280"/>
      <point x="476" y="280" type="curve" smooth="yes"/>
      <point x="571" y="280"/>
      <point x="639" y="358"/>
      <point x="639" y="358" type="curve"/>
    </contour>
    <contour>
      <point x="639" y="248" type="line"/>
      <point x="639" y="248"/>
      <point x="571" y="170"/>
      <point x="476" y="170" type="curve" smooth="yes"/>
      <point x="388" y="170"/>
      <point x="323" y="236"/>
      <point x="238" y="236" type="curve" smooth="yes"/>
      <point x="143" y="236"/>
      <point x="75" y="158"/>
      <point x="75" y="158" type="curve"/>
      <point x="75" y="53" type="line"/>
      <point x="75" y="53"/>
      <point x="143" y="131"/>
      <point x="238" y="131" type="curve" smooth="yes"/>
      <point x="326" y="131"/>
      <point x="391" y="65"/>
      <point x="476" y="65" type="curve" smooth="yes"/>
      <point x="571" y="65"/>
      <point x="639" y="143"/>
      <point x="639" y="143" type="curve"/>
    </contour>
  </outline>
</glyph>
<glyph name="notequal" format="1">
  <advance width="600"/>
  <unicode hex="2260"/>
  <outline>
    <contour>
      <point x="521" y="511" type="line"/>
      <point x="428" y="511" type="line"/>
      <point x="361" y="415" type="line"/>
      <point x="46" y="415" type="line"/>
      <point x="46" y="309" type="line"/>
      <point x="291" y="309" type="line"/>
      <point x="265" y="272"/>
      <point x="239" y="236"/>
      <point x="214" y="199" type="curve"/>
      <point x="46" y="199" type="line"/>
      <point x="46" y="93" type="line"/>
      <point x="143" y="93" type="line"/>
      <point x="79" y="0" type="line"/>
      <point x="175" y="0" type="line"/>
      <point x="240" y="93" type="line"/>
      <point x="553" y="93" type="line"/>
      <point x="553" y="199" type="line"/>
      <point x="309" y="199" type="line"/>
      <point x="386" y="309" type="line"/>
      <point x="553" y="309" type="line"/>
      <point x="553" y="415" type="line"/>
      <point x="455" y="415" type="line"/>
    </contour>
  </outline>
</glyph>
<glyph name="lozenge" format="1">
  <advance width="568"/>
  <unicode hex="25CA"/>
  <outline>
    <contour>
      <point x="344" y="0" type="line"/>
      <point x="512" y="343" type="line"/>
      <point x="344" y="686" type="line"/>
      <point x="223" y="686" type="line"/>
      <point x="55" y="343" type="line"/>
      <point x="223" y="0" type="line"/>
    </contour>
    <contour>
      <point x="324" y="506"/>
      <point x="364" y="424"/>
      <point x="404" y="343" type="curve"/>
      <point x="364" y="261"/>
      <point x="324" y="179"/>
      <point x="285" y="97" type="curve"/>
      <point x="164" y="343" type="line"/>
      <point x="205" y="424"/>
      <point x="244" y="506"/>
      <point x="285" y="588" type="curve"/>
    </contour>
  </outline>
</glyph>
